<?xml version="1.0" encoding="UTF-8" standalone="no"?><svg xmlns="http://www.w3.org/2000/svg" xml:space="preserve" id="svg28" version="1.1" viewBox="0 0 1623.8054 297.42953"><defs id="defs13"><linearGradient id="a" x1="137.21001" x2="469.35999" y1="1122.5" y2="1122.5" gradientTransform="matrix(-1.7683081 0 0 -1.0122651 1854.4878 1136.2402)" gradientUnits="userSpaceOnUse"><stop id="stop1" offset="0" stop-color="#17c5ae"/><stop id="stop2" offset=".60000002" stop-color="#17c5ae"/><stop id="stop3" offset=".82499999" stop-color="#17c5ae" stop-opacity=".25098041"/><stop id="stop37" offset=".94811827" stop-color="#17c5ae" stop-opacity="0"/><stop id="stop4" offset="1" stop-color="#17c5ae" stop-opacity="0"/></linearGradient><linearGradient id="b" x1="137.21001" x2="469.35999" y1="1111.2" y2="1111.2" gradientTransform="matrix(-2.0313821 0 0 -1.0881925 1890.5839 1476.3835)" gradientUnits="userSpaceOnUse"><stop id="stop5" offset="0" stop-color="#027774"/><stop id="stop35" offset=".14518476" stop-color="#027774"/><stop id="stop34" offset=".31057373" stop-color="#027774"/><stop id="stop6" offset=".60000002" stop-color="#027774"/><stop id="stop7" offset=".86993885" stop-color="#027774" stop-opacity=".25098041"/><stop id="stop36" offset=".95025975" stop-color="#027774" stop-opacity="0"/><stop id="stop8" offset="1" stop-color="#027774" stop-opacity="0"/></linearGradient><linearGradient id="linearGradient1122-1" x1="128.59" x2="463.13" y1="1111.2" y2="1111.2" gradientTransform="matrix(0 -.78020013 1.0616526 0 432.129 364.43989)" gradientUnits="userSpaceOnUse"><stop id="stop324" offset="0" stop-color="#027774"/><stop id="stop41945" offset=".15618181" stop-color="#04807a"/><stop id="stop44638" offset=".37864029" stop-color="#0a9389"/><stop id="stop49953" offset=".47482613" stop-color="#0d9c90"/><stop id="stop326" offset="1" stop-color="#17c5ae"/></linearGradient></defs><path id="path13" fill="#330f42" d="M77.53615 44.611724c12.414586-4.990833 25.9313-6.876258 39.2678-6.425696 12.85128.381244 25.90357 2.862797 37.27841 9.087473 10.66088 5.774116 19.41556 14.937838 24.76681 25.806759 5.94039 11.922544 7.9783 25.404723 7.98524 38.61657l-62.69677 5.89888c-.305-6.84161-.92191-14.21001-5.1017-19.914807-4.38773-5.822636-12.66412-6.827735-19.31158-5.08788-7.451521 1.98247-12.885934 8.130907-16.525052 14.632847-5.794859 10.39756-9.343866 21.85568-12.60174 33.25142-3.881726 14.43875-7.29903 29.08547-8.706156 44.00249-.506008 6.89012-1.095198 14.1199 1.476442 20.70504 1.656668 4.45015 5.268057 8.05464 9.676584 9.78064 6.41178 2.56472 13.50979 2.4954 20.275082 1.82996 4.83829-.51295 9.58647-1.80916 13.995-3.88176 2.23892-9.41327 4.36694-18.85772 6.55041-28.27791H91.843077l10.549973-45.96073h78.85446l-25.17576 108.38424c-20.86428 14.71605-46.18559 22.58355-71.60395 23.69261-17.63412.72089-36.051516-1.19226-51.737841-9.84304-12.712646-6.91091-22.548659-18.68095-27.428541-32.26709-6.5365463-17.86304-6.1899638-37.41047-3.4380984-55.98744 2.2943764-15.74886 5.9126984-31.31054 10.8618974-46.43554 5.378959-16.53907 12.456176-32.683017 22.500135-46.94848C45.782258 64.152218 60.262476 51.432527 77.53615 44.611724Z"/><path id="path14" fill="#330f42" d="M306.08814 43.714066c12.7473-.069316 25.77188 2.374113 36.91797 8.785945 10.36283 5.829569 18.57682 15.305217 22.9507 26.354367 3.5698 8.817135 4.43625 18.473015 3.97876 27.907062-.45749 14.12683-3.27864 28.54479-10.65393 40.78619-10.48065 17.4679-27.66422 30.37477-46.81637 36.96682 2.38449 9.32314 8.48434 17.64813 16.9063 22.37557 8.41501 4.91456 18.22332 6.73762 27.8375 7.29907l-11.8462 50.82331c-6.41178-.05545-12.85821.35352-19.23532-.50602-11.41643-1.47643-22.59718-5.03934-32.65501-10.65403-9.09433-5.06016-17.12117-12.13049-22.81206-20.87138-8.39423-12.78207-13.43355-27.46342-16.7538-42.30423h-1.16174l-17.0893 74.63373h-57.11679l51.2041-221.592937ZM275.6998 91.8548l-11.79768 50.8441h17.98071c6.78606-.13169 13.78011-1.95127 19.08282-6.35985 6.07212-5.06015 9.60034-12.66423 10.89655-20.3515.86646-5.90581.69317-12.55333-3.05687-17.516427-3.3757-4.52641-9.1775-6.477689-14.64656-6.616323Z"/><path id="path15" fill="#330f42" d="M416.57571 43.714066h134.7166l-12.11649 51.544197h-74.15481l-7.4446 32.558247h69.80864l-12.08878 51.53036h-69.81558l-7.75652 34.42287h80.92009l-24.87771 51.53864H365.37852Z"/><path id="path16" fill="#330f42" d="M697.19325 43.714066 700.9242 265.307h-58.70389l.92236-40.33423h-51.49855L574.86859 265.307h-61.20043L621.73463 43.714066ZM611.20745 177.4545h33.1835l1.85852-85.225387Z"/><path id="path17" fill="#330f42" d="M729.70849 43.714066h154.2223l-12.41458 54.639217h-45.28448L787.42835 265.31047h-60.84603l38.78951-166.957187h-48.07792Z"/><path id="path18" fill="#330f42" d="M921.27404 1.4271628h78.96196L937.43261 202.91814h-63.39982Z"/><path id="path19" fill="#330f42" d="M892.90987 218.6462c11.9074-1.10908 24.63314 3.67379 31.59589 13.65547 7.1153 9.79451 7.55222 23.17963 3.20396 34.20104-4.8545 12.58108-15.30554 22.74991-27.80244 27.70607-12.04608 4.85911-26.78298 4.55414-37.55304-3.21631-9.60499-6.69604-14.51497-18.90278-13.17651-30.42328 2.11516-22.00127 21.89382-40.26631 43.73214-41.92299Z"/><path id="path26" fill="url(#a)" d="M1611.8581 11.41127V0h-587.3435v11.41127Z"/><path id="path27" fill="url(#b)" stroke-width=".999997" d="M1611.858 267.18387v-12.26719H937.13445v12.26719Z" paint-order="stroke markers"/><path id="path19-4" fill="#330f42" d="M1541.2837 173.63284q-13.8216 0-25.2299-8.78775l7.1302-10.84906q9.6532 6.94341 18.5385 6.94341 7.0205 0 7.0205-4.33963v-.21698q0-.75943-.329-1.41038-.2194-.65094-.9873-1.0849-.7679-.54246-1.426-.97642-.6582-.43396-1.9746-.86792-1.3163-.43397-2.1939-.75944-.8775-.32547-2.6327-.75943-1.6454-.54245-2.6327-.86793-3.6199-.97641-6.3623-2.16981-2.6327-1.19339-5.4848-3.14623-2.7424-1.95283-4.2781-4.99056-1.4261-3.14623-1.4261-7.16038v-.21698q0-8.57076 6.143-13.45283 6.1429-4.99057 15.3574-4.99057 11.6277 0 21.9391 6.72642l-6.3624 11.3915q-9.3241-5.42453-15.9058-5.42453-2.9618 0-4.6072 1.19341-1.5358 1.0849-1.5358 2.82076v.21697q0 2.06132 2.9618 3.58019 3.0715 1.51887 8.9951 3.36321 3.7296 1.1934 6.3623 2.38679 2.6327 1.1934 5.4848 3.25472 2.8521 1.95283 4.3878 4.88207 1.5357 2.92925 1.5357 6.72642v.21698q0 9.33019-6.2526 14.10378-6.143 4.6651-16.235 4.6651Z"/><path id="path18-4" fill="#330f42" d="M1470.5757 173.63284q-8.666 0-14.4798-4.6651-5.7042-4.77359-5.7042-13.12737v-.21697q0-9.11321 6.3623-13.7783 6.4721-4.77359 17.3319-4.77359 7.1302 0 14.3701 2.38679v-.97641q0-10.63208-12.6149-10.63208-8.0078 0-16.235 3.14623l-4.1684-12.58491q11.0792-4.6651 22.8167-4.6651 13.2731 0 19.8548 6.50944 6.3624 6.29245 6.3624 18.55189v33.74057h-16.1253v-6.29246q-6.6914 7.37737-17.7706 7.37737Zm5.046-11.39152q5.9235 0 9.4338-2.82076 3.6199-2.82075 3.6199-7.37735v-2.92925q-4.9363-2.16981-10.6404-2.16981-5.3751 0-8.4466 2.06132-3.0715 2.06132-3.0715 5.96698v.21699q0 3.25471 2.523 5.20754 2.523 1.84434 6.5818 1.84434Z"/><path id="path17-9" fill="#330f42" d="M1365.3541 172.54793h-16.6737v-58.15095h16.6737v8.24528q7.3496-9.33019 17.3319-9.33019 11.8471 0 16.564 9.2217 7.7884-9.2217 19.3064-9.2217 9.4338 0 14.5895 5.53302 5.2654 5.42453 5.2654 15.83963v37.86321h-16.6737v-32.43868q0-11.82548-9.7629-11.82548-4.7169 0-7.4593 3.03774-2.6327 3.03773-2.6327 8.78774v32.43868h-16.6737v-32.43868q0-11.82548-9.7629-11.82548-4.7169 0-7.4593 3.03774-2.6327 3.03773-2.6327 8.78774Z"/><path id="path16-1" fill="#330f42" d="M1320.2453 173.52434q-8.2272 0-12.7247-3.90566-4.3878-4.01415-4.3878-13.56133v-27.5566h-7.0206v-14.10377h7.0206V99.53377h16.6737v14.86321h13.8216v14.10377h-13.8216v24.84434q0 5.64152 5.3751 5.64152 4.4975 0 8.2271-2.06133v13.23585q-5.7041 3.36321-13.1634 3.36321Z"/><path id="path15-5" fill="#330f42" d="M1263.5776 173.63284q-13.8216 0-25.2299-8.78775l7.1302-10.84906q9.6532 6.94341 18.5385 6.94341 7.0205 0 7.0205-4.33963v-.21698q0-.75943-.3291-1.41038-.2193-.65094-.9872-1.0849-.7679-.54246-1.4261-.97642-.6581-.43396-1.9745-.86792-1.3163-.43397-2.1939-.75944-.8776-.32547-2.6327-.75943-1.6454-.54245-2.6327-.86793-3.6199-.97641-6.3623-2.16981-2.6327-1.19339-5.4848-3.14623-2.7424-1.95283-4.2781-4.99056-1.4261-3.14623-1.4261-7.16038v-.21698q0-8.57076 6.143-13.45283 6.1429-4.99057 15.3574-4.99057 11.6277 0 21.9391 6.72642l-6.3624 11.3915q-9.3241-5.42453-15.9058-5.42453-2.9618 0-4.6072 1.19341-1.5358 1.0849-1.5358 2.82076v.21697q0 2.06132 2.9618 3.58019 3.0715 1.51887 8.995 3.36321 3.7297 1.1934 6.3624 2.38679 2.6327 1.1934 5.4848 3.25472 2.852 1.95283 4.3878 4.88207 1.5357 2.92925 1.5357 6.72642v.21698q0 9.33019-6.2526 14.10378-6.143 4.6651-16.235 4.6651Z"/><path id="path14-5" fill="#330f42" d="M1225.4798 172.54793h-16.6737v-58.15095h16.6737Z"/><path id="path13-5" fill="#330f42" d="M1225.9186 107.99603h-17.5513V93.349808h17.5513Z"/><path id="path12" fill="#330f42" d="M1177.0258 172.54793h-16.6737v-58.15095h16.6737v11.71698q5.7042-13.34435 18.7579-12.80189v17.25001h-.8775q-8.5563 0-13.2732 5.09905-4.6072 5.09905-4.6072 15.40566Z"/><path id="path10" fill="#330f42" d="M1055.3194 173.84981q-13.0538 0-21.8295-8.78773-8.7756-8.78774-8.7756-21.26415v-.21699q0-12.5849 8.7756-21.37264 8.7757-8.89623 22.0488-8.89623 14.4799 0 23.4749 9.76415l-10.2017 10.84907q-3.1812-3.25473-6.2526-4.77359-2.9618-1.62736-7.1302-1.62736-6.143 0-10.2017 4.66509-4.0588 4.55661-4.0588 11.17452v.21699q0 6.9434 4.0588 11.5 4.1684 4.55661 10.8598 4.55661 6.9108 0 13.4926-6.18396l9.7629 9.76414q-4.8266 5.20756-10.3114 7.91981-5.4848 2.71227-13.7119 2.71227Z"/><path id="path11" fill="#330f42" d="M1107.8509 172.54793h-16.6738V93.349808h16.6738v29.292452q7.3496-9.33019 17.2222-9.33019 9.5435 0 14.6992 5.75 5.2653 5.64151 5.2653 15.83963v37.64623h-16.6737v-32.43868q0-11.82548-10.092-11.82548-4.9363 0-7.6787 3.03774-2.7423 3.03773-2.7423 8.78774Z"/><path id="path361" fill="url(#linearGradient1122-1)" stroke-width="1.5232" d="M1611.8374 267.18389h11.968V0h-11.968Z" paint-order="stroke markers"/></svg>