<?xml version="1.0" encoding="UTF-8" standalone="no"?>
<!-- Generator: Adobe Illustrator 16.0.0, SVG Export Plug-In . SVG Version: 6.00 Build 0)  -->

<svg
   version="1.1"
   id="Layer_1"
   x="0px"
   y="0px"
   width="788.29059"
   height="1000"
   viewBox="0 0 788.2906 1000"
   enable-background="new 0 0 113 35"
   xml:space="preserve"
   sodipodi:docname="CNA_2019.svg"
   inkscape:version="1.2.1 (9c6d41e410, 2022-07-14)"
   xmlns:inkscape="http://www.inkscape.org/namespaces/inkscape"
   xmlns:sodipodi="http://sodipodi.sourceforge.net/DTD/sodipodi-0.dtd"
   xmlns:xlink="http://www.w3.org/1999/xlink"
   xmlns="http://www.w3.org/2000/svg"
   xmlns:svg="http://www.w3.org/2000/svg"><defs
   id="defs124"><linearGradient
   id="linearGradient3708"><stop
     style="stop-color:#534b48;stop-opacity:1;"
     offset="0"
     id="stop4483" /><stop
     style="stop-color:#1e1816;stop-opacity:1;"
     offset="1"
     id="stop4485" /></linearGradient>
	
	

		
		
		
		
		
		
	
			<defs
   id="defs3">
				<path
   id="SVGID_1_"
   d="m 10.189,25.643 v 8.555 h 2.355 v -7.345 c 0.271,-0.174 0.86,-0.261 1.268,-0.261 1.314,0 1.585,0.692 1.585,1.858 v 5.704 H 17.8 v -5.919 c 0,-0.476 -0.045,-0.908 -0.135,-1.341 -0.168,-0.632 -0.477,-1.195 -1.042,-1.599 -0.499,-0.303 -1.269,-0.519 -2.311,-0.519 -1.496,0.001 -3.081,0.303 -4.123,0.867" />
			</defs>
			
			
				
			
		
			<defs
   id="defs26">
				<path
   id="SVGID_4_"
   d="m 21.632,31.264 c 0,-0.95 0.363,-1.252 1.179,-1.426 0.68,-0.172 1.254,-0.172 1.979,-0.217 v 2.636 c -0.544,0.218 -0.983,0.26 -1.525,0.26 -1.044,0 -1.633,-0.26 -1.633,-1.253 m -1.826,-6.021 0.009,1.834 c 1.016,-0.33 2.075,-0.479 3.208,-0.479 1.27,0 1.768,0.475 1.768,1.556 -1.087,0.044 -1.843,0.044 -2.839,0.216 -1.904,0.259 -2.629,1.297 -2.629,2.939 0,1.987 1.335,3.013 3.67,3.023 1.721,0 3.066,-0.302 4.107,-0.865 v -5.703 c 0,-2.418 -1.766,-2.98 -3.896,-2.98 -1.403,-10e-4 -2.488,0.205 -3.398,0.459" />
			</defs>
			
			
				
			
		
			<defs
   id="defs74">
				<polygon
   id="SVGID_10_"
   points="7.685,23.378 17.628,0.701 11.339,0.701 1.396,23.378 " />
			</defs>
			
			
				<linearGradient
   id="SVGID_12_"
   gradientUnits="userSpaceOnUse"
   x1="-240.1758"
   y1="436.94821"
   x2="-240.09911"
   y2="436.94821"
   gradientTransform="matrix(0,-295.5527,-295.5527,0,129150.75,-70961.25)">
				<stop
   offset="0"
   style="stop-color:#EE2327"
   id="stop79" />
				<stop
   offset="0.1993"
   style="stop-color:#DD2226"
   id="stop81" />
				<stop
   offset="0.5232"
   style="stop-color:#BF1F23"
   id="stop83" />
				<stop
   offset="0.9291"
   style="stop-color:#931A1C"
   id="stop85" />
				<stop
   offset="1"
   style="stop-color:#8B181B"
   id="stop87" />
			</linearGradient>
			
		
			<defs
   id="defs95">
				<polygon
   id="SVGID_13_"
   points="27.57,23.378 17.628,0.701 11.339,0.701 21.281,23.378 " />
			</defs>
			
			
				<linearGradient
   id="SVGID_15_"
   gradientUnits="userSpaceOnUse"
   x1="-239.3735"
   y1="436.42191"
   x2="-239.29691"
   y2="436.42191"
   gradientTransform="matrix(253.549,253.549,253.549,-253.549,-49952,171349.56)">
				<stop
   offset="0"
   style="stop-color:#EE2327"
   id="stop100" />
				<stop
   offset="0.1992"
   style="stop-color:#DD2226"
   id="stop102" />
				<stop
   offset="0.523"
   style="stop-color:#BF1F23"
   id="stop104" />
				<stop
   offset="0.9288"
   style="stop-color:#931A1C"
   id="stop106" />
				<stop
   offset="0.9996"
   style="stop-color:#8B181B"
   id="stop108" />
				<stop
   offset="1"
   style="stop-color:#8B181B"
   id="stop110" />
			</linearGradient>
			
		
			<defs
   id="defs49">
				<path
   id="SVGID_7_"
   d="m 1.059,29.44 c 0,2.508 0.498,4.883 3.715,4.883 1.27,0 2.792,-0.243 3.608,-0.46 L 8.379,31.884 c -0.588,0.13 -1.671,0.381 -2.26,0.381 -2.402,0 -2.612,-0.794 -2.612,-2.867 0,-2.204 0.393,-2.794 2.612,-2.737 0.739,0.019 1.244,0.111 2.249,0.402 L 8.383,25.191 C 7.703,25.018 6.407,24.731 5.318,24.731 1.785,24.73 1.059,26.416 1.059,29.44" />
			</defs>
			
			
				
			
		<linearGradient
   inkscape:collect="always"
   xlink:href="#SVGID_15_"
   id="linearGradient1327"
   x1="9.7270002"
   y1="2.312"
   x2="29.181499"
   y2="21.7665"
   gradientUnits="userSpaceOnUse"
   gradientTransform="matrix(29.734471,0,0,29.734471,-31.488805,-20.843864)" /><linearGradient
   inkscape:collect="always"
   xlink:href="#SVGID_12_"
   id="linearGradient1719"
   x1="9.5120001"
   y1="23.378"
   x2="9.5120001"
   y2="0.70099998"
   gradientUnits="userSpaceOnUse"
   gradientTransform="matrix(29.734471,0,0,29.734471,-31.488805,-20.843864)" /><linearGradient
   inkscape:collect="always"
   xlink:href="#linearGradient3708"
   id="linearGradient3710"
   x1="126.63867"
   y1="824.51953"
   x2="126.31445"
   y2="1000"
   gradientUnits="userSpaceOnUse" /></defs><sodipodi:namedview
   id="namedview122"
   pagecolor="#ffffff"
   bordercolor="#666666"
   borderopacity="1.0"
   inkscape:showpageshadow="2"
   inkscape:pageopacity="0.0"
   inkscape:pagecheckerboard="0"
   inkscape:deskcolor="#d1d1d1"
   showgrid="false"
   inkscape:zoom="0.5"
   inkscape:cx="361"
   inkscape:cy="532"
   inkscape:window-width="1366"
   inkscape:window-height="705"
   inkscape:window-x="-8"
   inkscape:window-y="-8"
   inkscape:window-maximized="1"
   inkscape:current-layer="Layer_1" />

				
			
				
			<path
   id="path2814"
   style="fill:url(#linearGradient3710);fill-opacity:1;stroke-width:29.7345"
   d="M 126.63867 714.51953 C 21.587533 714.4968 0 764.62265 0 854.53906 C 0 929.11263 14.807768 999.73242 110.46289 999.73242 C 148.22539 999.73242 193.48297 992.507 217.74609 986.05469 L 217.65625 927.21094 C 200.17252 931.07635 167.9705 938.53906 150.45703 938.53906 C 79.035345 938.53906 72.789063 914.93009 72.789062 853.29102 C 72.789062 787.75667 84.476721 770.211 150.45703 771.90625 C 172.43068 772.47082 187.44714 775.20665 217.33008 783.85938 L 217.77539 728.19727 C 197.55609 723.05321 159.0193 714.52654 126.63867 714.51953 z M 394.07031 715.85742 C 349.58774 715.87492 302.45976 724.86655 271.47656 741.63672 L 271.47656 996.01562 L 341.5 996.01562 L 341.5 777.61523 C 349.558 772.44147 367.07153 769.85547 379.20312 769.85547 C 418.27409 769.85547 426.33203 790.43132 426.33203 825.10156 L 426.33203 994.70703 L 497.78516 994.70703 L 497.78516 818.70898 C 497.78516 804.55546 496.44758 791.71089 493.77148 778.83594 C 488.77612 760.04383 479.587 743.30175 462.78711 731.28906 C 447.94965 722.27956 425.05351 715.84523 394.07031 715.85742 z M 658.4707 716.0957 C 616.75339 716.0839 584.48989 722.19162 557.43164 729.74414 L 557.69922 784.27734 C 587.90932 774.465 619.39886 770.0332 653.08789 770.0332 C 690.85051 770.0332 705.6582 784.15794 705.6582 816.30078 C 673.33699 817.6091 650.85761 817.60833 621.24219 822.72266 C 564.62796 830.42385 543.07031 861.28948 543.07031 910.11328 C 543.07031 969.19543 582.7656 999.70266 652.19531 1000 C 703.36813 1000 743.36098 991.01972 774.31445 974.2793 L 774.31445 804.70312 C 774.31445 732.80549 721.80488 716.11361 658.4707 716.0957 z M 705.62891 859.92188 L 705.62891 938.30078 C 689.4534 944.78285 676.39925 946.03125 660.2832 946.03125 C 629.24054 946.03125 611.72656 938.3016 611.72656 908.77539 C 611.72656 880.52776 622.52191 871.54681 646.78516 866.37305 C 667.00452 861.25872 684.0715 861.25989 705.62891 859.92188 z " />
				
			
				
			
				<g
   id="g1901"><path
     id="path1834"
     clip-path="none"
     transform="matrix(29.734471,0,0,29.734471,-31.488805,-20.843864)"
     style="fill:#ee2327"
     d="m 10.441,23.382 14.464,-6.087 2.638,6.087 z" /><path
     id="path1817"
     d="M 492.67045,0 H 305.67036 L 10.020517,674.2886 H 197.0206 Z"
     style="fill:url(#linearGradient1719);fill-opacity:1;stroke-width:29.7345" /><path
     id="path1814"
     style="fill:url(#linearGradient1327);stroke-width:29.7345"
     d="M 492.67045,0 H 305.67036 l 295.62011,674.2886 h 187.00009 z" /></g>
			

</svg>
