<?xml version="1.0" encoding="UTF-8" standalone="no"?><svg version="1.1" viewBox="0 0 759.13995 532.65716" xml:space="preserve" xmlns:xlink="http://www.w3.org/1999/xlink" xmlns="http://www.w3.org/2000/svg" xmlns:svg="http://www.w3.org/2000/svg"><defs><linearGradient id="b" x1="197.5845" x2="469.35999" y1="1111.2" y2="1111.2" gradientUnits="userSpaceOnUse" gradientTransform="matrix(0 -.83317176 1.0603602 0 -1152.1923 634.94749)"><stop stop-color="#06004a" offset=".01599746"/><stop stop-color="#06004a" offset=".31"/><stop stop-color="#06004a" offset=".61370873"/><stop stop-color="#06004a" offset=".76255965" stop-opacity=".36078432"/><stop stop-color="#06004a" offset=".85280764" stop-opacity=".12156863"/><stop stop-color="#06004a" offset=".91968697" stop-opacity=".01960784"/><stop stop-color="#06004a" stop-opacity=".01176471" offset="1"/></linearGradient><linearGradient id="a" x1="197.5845" x2="469.35999" y1="1111.2" y2="1111.2" gradientUnits="userSpaceOnUse" gradientTransform="matrix(0 -.83317176 1.0603602 0 -1152.1923 634.94749)"><stop stop-color="#9b0c3e" offset=".01599746"/><stop stop-color="#990c3e" offset=".3148531"/><stop stop-color="#990c3e" offset=".61370873"/><stop stop-color="#990c3e" offset=".76255965" stop-opacity=".36078432"/><stop stop-color="#990c3e" offset=".85280764" stop-opacity=".12156863"/><stop stop-color="#990c3e" offset=".91968697" stop-opacity=".01960784"/><stop stop-color="#990c3e" stop-opacity=".01176471" offset="1"/></linearGradient><linearGradient id="c" x1="128.59" x2="463.13" y1="1111.2" y2="1111.2" gradientUnits="userSpaceOnUse" gradientTransform="matrix(2.2167544 0 0 1.0616481 -276.32999 -659.01426)"><stop stop-color="#06004a" offset="0"/><stop stop-color="#220247" offset=".15618181"/><stop stop-color="#5c0642" offset=".37864029"/><stop stop-color="#740841" offset=".47482613"/><stop stop-color="#9c0c3e" offset=".73741305"/><stop stop-color="#9b0c3e" offset="1"/></linearGradient><linearGradient xlink:href="#a" id="d" gradientUnits="userSpaceOnUse" gradientTransform="matrix(0 -.97290074 1.0603597 0 -431.08519 666.14879)" x1="137.21001" y1="1111.2" x2="469.35999" y2="1111.2"/><linearGradient xlink:href="#b" id="e" gradientUnits="userSpaceOnUse" gradientTransform="matrix(0 -.97290074 1.0603597 0 -1178.2717 666.14879)" x1="137.21001" y1="1111.2" x2="469.35999" y2="1111.2"/></defs><path d="M58.846903 32.801676c9.422184-3.790884 19.680844-5.222996 29.802723-4.880764 9.753619.289582 19.659804 2.174494 28.292854 6.902568 8.09119 4.385843 14.73565 11.346327 18.79703 19.602029 4.50854 9.056001 6.05523 19.296652 6.06049 29.331964l-47.584394 4.480614c-.231477-5.196669-.699693-10.793488-3.871986-15.126679-3.33012-4.422698-9.611575-5.18614-14.656733-3.864596-5.655414 1.505823-9.779922 6.175982-12.541869 11.114661-4.398072 7.897675-7.091628 16.600912-9.564228 25.256767-2.946077 10.96724-5.539677 22.09243-6.60763 33.42295-.384041 5.23353-.831214 10.72505 1.120561 15.72691 1.257345 3.38021 3.998248 6.11807 7.344149 7.42908 4.866289 1.94809 10.2534 1.89544 15.387991 1.38999 3.672074-.38962 7.275757-1.37419 10.621659-2.94847 1.699254-7.15003 3.314336-14.32375 4.971505-21.47904H69.7053l8.007015-34.91036h59.847445l-19.10741 82.32536c-15.83517 11.17785-35.053054 17.15376-54.344596 17.99618-13.383607.54757-27.361689-.9056-39.266996-7.47647-9.648401-5.24932-17.1135497-14.18949-20.817189-24.50911-4.96098306-13.56821-4.69794049-28.41584-2.6093824-42.52635 1.7413418-11.96235 4.4875063-23.78253 8.2437547-35.271018C13.740361 82.225325 19.111691 69.962868 26.734664 59.127259c8.012278-11.48322 19.002196-21.144709 32.112239-26.325583Z" fill="#330f42"/><path d="M232.30892 32.119843c9.67471-.052651 19.55984 1.803302 28.01929 6.673535 7.86498 4.427963 14.09908 11.625377 17.41868 20.017974 2.70934 6.697228 3.36695 14.031535 3.01973 21.197358-.34722 10.730308-2.48837 21.68175-8.08592 30.97994-7.95441 13.26809-20.99606 23.07175-35.5318 28.07887 1.80974 7.08158 6.43929 13.40499 12.83122 16.9958 6.38667 3.73296 13.83079 5.11769 21.12758 5.54416l-8.9908 38.60384c-4.86629-.04212-9.75888.26852-14.59886-.38436-8.66462-1.12146-17.15037-3.82773-24.78387-8.09248-6.90224-3.84354-12.9943-9.21395-17.31346-15.85327-6.37089-9.70887-10.19554-20.86038-12.71548-32.133h-.88172l-12.9701 56.68951H135.504l38.8619-168.315245Zm-23.06357 36.566234-8.95397 38.619633h13.64665c5.15036-.10004 10.45857-1.48213 14.48312-4.83075 4.6085-3.843533 7.28628-9.619366 8.27006-15.458379.6576-4.485879.52608-9.535127-2.32004-13.30495-2.56203-3.438121-6.96537-4.920252-11.11618-5.025554Z" fill="#330f42"/><path d="M316.16465 32.119843h102.24464l-9.19596 39.151407h-56.28059l-5.65015 24.730252h52.98202l-9.17491 39.140878h-52.9873l-5.88689 26.14657h61.41518l-18.88121 39.14719H277.308Z" fill="#330f42"/><path d="m529.14239 32.119843 2.83164 168.315247h-44.55395l.70003-30.63666h-39.08538l-12.73197 30.63666h-46.44874l82.01823-168.315247ZM463.88253 133.705h25.18497l1.41055-64.734606Z" fill="#330f42"/><path d="M553.82018 32.119843h117.04869l-9.42219 41.502281h-34.36914L597.62729 200.43772h-46.17975l29.43973-126.815596H544.398Z" fill="#330f42"/><path d="M699.21093 0h59.92905l-47.66533 153.04641h-48.11798Z" fill="#330f42"/><path d="M677.68364 164.99296c9.03725-.84242 18.69559 2.7905 23.98004 10.37228 5.40024 7.43961 5.73184 17.60655 2.43168 25.97808-3.68437 9.55619-11.61631 17.28012-21.10095 21.04467-9.14252 3.69084-20.32724 3.45919-28.5013-2.44301-7.28981-5.08611-11.01629-14.35798-10.00045-23.1086 1.60532-16.71148 16.61654-30.58506 33.19098-31.84342Z" fill="#330f42"/><path d="M94.913316 408.86716V334.9H120.924v10.15861c6.10303-7.83373 13.28554-11.7506 21.848-11.7506 10.0199 0 17.12486 4.00796 21.315 12.02387 7.01393-8.01591 15.05764-12.02387 24.531-12.02387 7.92483 0 14.41914 2.36834 18.88255 7.10501 4.46341 4.73668 6.69512 11.38625 6.69512 19.94871v48.50543h-25.96065v-40.17069c0-3.91687-.9109-6.92284-2.7327-9.01791-1.8218-2.18616-4.28123-3.27924-7.37829-3.27924-3.18815 0-5.78422 1.09308-7.7882 3.27924-1.91289 2.09507-2.86933 5.10104-2.86933 9.01791v40.17069h-25.86056v-40.17069c0-3.91687-.9109-6.92284-2.7327-9.01791-1.8218-2.18616-4.28123-3.27924-7.37829-3.27924-3.18815 0-5.73867 1.09308-7.65156 3.27924-1.91289 2.09507-2.86934 5.10104-2.86934 9.01791v40.17069Zm155.265574 22.2715q-12.29715 0-23.77449-6.42184l8.06147-18.17246q6.55848 3.96242 11.3407 3.96242 3.82578 0 6.01194-3.00597l-28.96662-72.55319h27.19037l14.75658 44.54301 13.93677-44.54301h26.64382L278.3257 407.0909q-4.91886 13.11696-11.06743 18.58236-6.14858 5.4654-17.07938 5.4654Zm93.09635-20.63188c-13.20805 0-24.86757-3.6436-34.97856-10.9308l9.70108-15.71303c8.56246 5.64758 17.03383 8.3717 25.41411 8.3717 4.37232 0 6.55848-1.31222 6.55848-4.13601 0-1.36635-.9109-2.35984-2.7327-3.17965-1.73071-.81981-4.78222-1.92147-9.15454-3.10564-6.72913-1.84166-13.29327-3.74278-18.17229-7.21478-4.8704-3.46586-8.06163-8.49697-8.06163-16.59657 0-17.24272 14.29429-24.55736 29.34981-24.55736 11.38625 0 21.84277 2.96969 30.76959 8.70836l-8.88128 16.29584c-8.1981-4.5545-16.40517-6.83175-21.8616-6.83175-4.00796 0-6.01194 1.27526-6.01194 3.82578 0 1.27526.86536 2.36834 2.59607 3.27924 1.73071.81981 4.87331 1.91289 9.42781 3.27924 4.19014 1.18417 7.65156 2.36834 10.38426 3.55251 4.12818 1.33497 11.20312 5.40489 13.93677 11.06744 1.27526 2.55052 1.91289 5.60203 1.91289 9.15454 0 17.65222-14.07386 24.73094-30.19633 24.73094Zm71.54485-.13664c-8.28919 0-14.58147-1.93786-18.70109-6.01414-4.11962-4.07628-6.06657-10.29097-6.06657-18.44352V356.0025H381.257v-21.105h8.79543v-18.66887h25.96065v18.66887H433.279v21.105h-17.26592v24.85448c0 4.91886 2.26843 7.37829 7.00511 7.37829 3.09706 0 6.3763-.81981 9.83772-2.45943v20.35862c-5.00995 2.82379-11.02189 4.23568-18.03582 4.23568Zm66.9625.27327c-11.65952 0-21.17842-3.55251-28.55671-10.65753s-11.06744-16.44174-11.06744-28.01017c0-21.48035 15.07902-38.6677 37.30136-38.6677 29.61421 0 37.30135 23.80246 37.30135 40.44395 0 2.36834-.04554 4.1446-.13663 5.32877h-49.46187c1.04754 4.0535 2.90349 6.99352 5.56787 9.02027s6.13719 3.14024 10.41842 3.14024c5.82976 0 11.29516-2.50497 16.3962-7.51492l14.34668 11.88724c-7.92483 10.0199-18.62791 15.02985-32.10923 15.02985Zm-15.02985-44.81628h25.68738c-.45545-4.09905-1.8218-7.33274-4.09905-9.70108-2.27725-2.45943-5.19213-3.68915-8.74464-3.68915-3.37033 0-6.19412 1.22972-8.47137 3.68915-2.18616 2.36834-3.6436 5.60203-4.37232 9.70108Zm63.7918 43.04003v-73.91954h25.98492v14.89322c.82546-1.95254 1.78253-3.72803 2.79081-5.32647 3.27829-5.19709 6.89388-8.34705 12.76064-9.97627 2.39393-.66481 4.99438-.9382 7.80309-.82019V361.1h-2.13566c-7.99649 0-13.72851 2.80148-17.19606 8.24297-2.65491 4.16624-4.09274 9.88008-4.09274 17.06903v22.45516Zm83.1868 22.2715c-8.1981 0-16.12293-2.14061-23.77449-6.42184l8.06146-18.17246c4.37232 2.64161 8.15256 3.96242 11.34071 3.96242 2.55052 0 4.5545-1.00199 6.01194-3.00597l-28.96662-72.55319h27.19036l14.75658 44.54301 13.93677-44.54301h26.64382l-27.05373 72.14328c-3.27924 8.74464-6.87525 14.98532-11.06743 18.58236-4.16219 3.5713-9.79217 5.4654-17.07937 5.4654Z" fill="#330f42"/><path d="M0 520.68917v11.96799h759.13995v-11.96799Z" fill="url(#c)"/><path d="M747.18651 532.65716h11.95344V209.50822h-11.95344Z" fill="url(#d)"/><path d="M0 532.65716h11.95344V209.50822H0Z" fill="url(#e)"/></svg>