<?xml version="1.0" encoding="UTF-8" standalone="no"?><svg viewBox="0 0 1552.978 296.00238" version="1.1" xml:space="preserve" xmlns:xlink="http://www.w3.org/1999/xlink" xmlns="http://www.w3.org/2000/svg" xmlns:svg="http://www.w3.org/2000/svg"><defs><linearGradient id="c" x1="108.83495" x2="469.35999" y1="1122.5" y2="1122.5" gradientUnits="userSpaceOnUse" gradientTransform="matrix(-1.4368478 0 0 -.776187 1750.1277 871.24897)"><stop stop-color="#8c0540" offset=".09585492"/><stop stop-color="#a3043f" offset=".315"/><stop stop-color="#a1043f" offset=".63592547"/><stop stop-color="#a3043f" offset=".87914783" stop-opacity=".25098041"/><stop stop-color="#a3043f" stop-opacity="0" offset="1"/></linearGradient><linearGradient xlink:href="#a" id="b" gradientUnits="userSpaceOnUse" gradientTransform="matrix(-1.8028485 0 0 -.77619072 1800.3466 1126.3865)" x1="137.21001" y1="1111.2" x2="469.35999" y2="1111.2"/><linearGradient id="a" x1="197.5845" x2="469.35999" y1="1111.2" y2="1111.2" gradientUnits="userSpaceOnUse" gradientTransform="matrix(0 -.83317176 1.0603602 0 -1152.1923 634.94749)"><stop stop-color="#3a004a" offset=".01599746"/><stop stop-color="#00004b" offset=".35684341"/><stop stop-color="#010047" offset=".70305485"/><stop stop-color="#010047" offset=".89252961" stop-opacity=".25098041"/><stop stop-color="#010047" offset=".95449829" stop-opacity=".07"/><stop stop-color="#010047" stop-opacity="0" offset="1"/></linearGradient><linearGradient id="d" x1="128.59" x2="463.13" y1="1111.2" y2="1111.2" gradientUnits="userSpaceOnUse" gradientTransform="matrix(0 -.77056216 .80368746 0 650.86047 359.93792)"><stop stop-color="#390049" offset="0"/><stop stop-color="#49004f" offset=".15618181"/><stop stop-color="#5b004f" offset=".37864029"/><stop stop-color="#630249" offset=".47482613"/><stop stop-color="#7d0342" offset=".73741305"/><stop stop-color="#8c0540" offset="1"/></linearGradient></defs><path fill="#330f42" d="M77.53615 43.184561c12.414586-4.990833 25.9313-6.876258 39.2678-6.425696 12.85128.381244 25.90357 2.862797 37.27841 9.087473 10.66088 5.774116 19.41556 14.937838 24.76681 25.806759 5.94039 11.922544 7.9783 25.404723 7.98524 38.616573l-62.69677 5.89888c-.305-6.84161-.92191-14.21001-5.1017-19.91481-4.38773-5.822636-12.66412-6.827735-19.31158-5.08788-7.451521 1.98247-12.885934 8.130907-16.525052 14.63285-5.794859 10.39756-9.343866 21.85568-12.60174 33.25142-3.881726 14.43875-7.29903 29.08547-8.706156 44.00249-.506008 6.89012-1.095198 14.1199 1.476442 20.70504 1.656668 4.45015 5.268057 8.05464 9.676584 9.78064 6.41178 2.56472 13.50979 2.4954 20.275082 1.82996 4.83829-.51295 9.58647-1.80916 13.995-3.88176 2.23892-9.41327 4.36694-18.85772 6.55041-28.27791H91.843077l10.549973-45.96073h78.85446L156.07175 245.6321c-20.86428 14.71605-46.18559 22.58355-71.60395 23.69261-17.63412.72089-36.051516-1.19226-51.737841-9.84304-12.712646-6.91091-22.548659-18.68095-27.428541-32.26709-6.5365463-17.86304-6.1899638-37.41047-3.4380984-55.98744C4.157696 155.47828 7.776018 139.9166 12.725217 124.7916c5.378959-16.53907 12.456176-32.68302 22.500135-46.948483C45.782258 62.725055 60.262476 50.005364 77.53615 43.184561Z"/><path fill="#330f42" d="M306.08814 42.286903c12.7473-.069316 25.77188 2.374113 36.91797 8.785945 10.36283 5.829569 18.57682 15.305217 22.9507 26.354367 3.5698 8.817135 4.43625 18.473015 3.97876 27.907065-.45749 14.12683-3.27864 28.54479-10.65393 40.78619-10.48065 17.4679-27.66422 30.37477-46.81637 36.96682 2.38449 9.32314 8.48434 17.64813 16.9063 22.37557 8.41501 4.91456 18.22332 6.73762 27.8375 7.29907l-11.8462 50.82331c-6.41178-.05545-12.85821.35352-19.23532-.50602-11.41643-1.47643-22.59718-5.03934-32.65501-10.65403-9.09433-5.06016-17.12117-12.13049-22.81206-20.87138-8.39423-12.78207-13.43355-27.46342-16.7538-42.30423h-1.16174l-17.0893 74.63373h-57.11679l51.2041-221.59294ZM275.6998 90.427637l-11.79768 50.844103h17.98071c6.78606-.13169 13.78011-1.95127 19.08282-6.35985 6.07212-5.06015 9.60034-12.66423 10.89655-20.3515.86646-5.90581.69317-12.55333-3.05687-17.51643-3.3757-4.52641-9.1775-6.477689-14.64656-6.616323Z"/><path fill="#330f42" d="M416.57571 42.286903h134.7166L539.17582 93.8311h-74.15481l-7.4446 32.55825h69.80864l-12.08878 51.53036h-69.81558l-7.75652 34.42287h80.92009l-24.87771 51.53864H365.37852Z"/><path fill="#330f42" d="m697.19325 42.286903 3.73095 221.592937h-58.70389l.92236-40.33423h-51.49855l-16.77553 40.33423h-61.20043L621.73463 42.286903Zm-85.9858 133.740437h33.1835l1.85852-85.22539Z"/><path fill="#330f42" d="M729.70849 42.286903h154.2223L871.51621 96.92612h-45.28448l-38.80338 166.95719h-60.84603l38.78951-166.95719h-48.07792Z"/><path fill="#330f42" d="M921.27404 0h78.96196l-62.80339 201.49098h-63.39982Z"/><path fill="#330f42" d="M892.90987 217.21904c11.9074-1.10908 24.63314 3.67379 31.59589 13.65547 7.1153 9.79451 7.55222 23.17963 3.20396 34.20104-4.8545 12.58108-15.30554 22.74991-27.80244 27.70607-12.04608 4.85911-26.78298 4.55414-37.55304-3.21631-9.60499-6.69604-14.51497-18.90278-13.17651-30.42328 2.11516-22.00127 21.89382-40.26631 43.73214-41.92299Z"/><path d="M1552.9779 263.88332v-8.75H954.16183v8.75Z" fill="url(#b)"/><path d="M1552.9777 8.75V0h-477.249v8.75Z" fill="url(#c)"/><path d="M1543.918 263.88333h9.06V0h-9.06Z" fill="url(#d)"/><path d="M1028.0185 163.12036v-59.62799h20.9683v8.18927c4.9198-6.31509 10.71-9.47264 17.6126-9.47264 8.0775 0 13.8052 3.23098 17.1829 9.69294 5.6542-6.46196 12.1386-9.69294 19.7755-9.69294 6.3885 0 11.6239 1.90922 15.222 5.72764 3.5982 3.81844 5.3971 9.17893 5.3971 16.08148v39.10224h-20.9278V130.7371c0-3.15755-.7343-5.58079-2.2029-7.2697-1.4688-1.76236-3.4513-2.64355-5.948-2.64355-2.5702 0-4.6629.88119-6.2785 2.64355-1.542 1.68891-2.3131 4.11215-2.3131 7.2697v32.38326h-20.8473V130.7371c0-3.15755-.7342-5.58079-2.2029-7.2697-1.4685-1.76236-3.4513-2.64355-5.9479-2.64355-2.57 0-4.6262.88119-6.1681 2.64355-1.5422 1.68891-2.3132 4.11215-2.3132 7.2697v32.38326Zm125.166 17.95399q-9.9132 0-19.1656-5.17692l6.4987-14.64958q5.2871 3.19428 9.1422 3.19428 3.0842 0 4.8465-2.42324l-23.3512-58.48814h21.9193l11.8959 35.90797 11.2351-35.90797h21.4786l-21.8091 58.15769q-3.9654 10.57413-8.922 14.98001-4.9566 4.4059-13.7684 4.4059Zm75.0489-16.63222c-10.6476 0-20.0469-2.93727-28.1978-8.81177l7.8205-12.66693c6.9025 4.55275 13.7318 6.74878 20.4874 6.74878 3.5248 0 5.2871-1.05784 5.2871-3.33421 0-1.10148-.7344-1.90236-2.2029-2.56325-1.3952-.66089-3.8552-1.54898-7.3799-2.50358-5.4247-1.48464-10.7163-3.01721-14.6494-5.81615-3.9263-2.79397-6.4988-6.84976-6.4988-13.37918 0-13.90006 11.5231-19.7967 23.6601-19.7967 9.1788 0 17.6083 2.39399 24.8046 7.02016l-7.1595 13.13676c-6.609-3.67157-13.225-5.50735-17.6236-5.50735-3.2311 0-4.8465 1.02804-4.8465 3.08411 0 1.02805.6975 1.90923 2.0927 2.64354 1.3953.66088 3.9287 1.54206 7.6003 2.64353 3.3777.95461 6.1681 1.90921 8.3711 2.86383 3.328 1.07617 9.0313 4.35709 11.235 8.92191 1.0281 2.05608 1.5421 4.51604 1.5421 7.37986 0 14.23018-11.3456 19.93664-24.3425 19.93664Zm57.6753-.11015c-6.6824 0-11.7548-1.56219-15.0757-4.84826-3.3211-3.28605-4.8906-8.29596-4.8906-14.86807v-24.11168h-7.0904v-17.01362h7.0904V88.440596h20.928v15.049754h13.9187v17.01362h-13.9187v20.03622c0 3.9653 1.8286 5.94795 5.647 5.94795 2.4967 0 5.1403-.66089 7.9306-1.98265v16.41192c-4.0387 2.27638-8.8852 3.41457-14.5393 3.41457Zm53.9812.22029c-9.3992 0-17.0727-2.86383-23.0207-8.59147-5.948-5.72766-8.9219-13.25437-8.9219-22.58017 0-17.3162 12.1558-31.17163 30.0701-31.17163 23.8733 0 30.0702 19.18815 30.0702 32.60354 0 1.90922-.0367 3.34114-.1102 4.29575h-39.8731c.8443 3.2677 2.3406 5.63777 4.4883 7.27161 2.1479 1.63384 4.9475 2.53147 8.3988 2.53147 4.6996 0 9.1054-2.01936 13.2177-6.05809l11.5654 9.58282c-6.3886 8.07744-15.0168 12.11617-25.8846 12.11617Zm-12.1161-36.12826h20.7076c-.3672-3.30441-1.4686-5.91123-3.3044-7.82045-1.8359-1.98263-4.1856-2.97398-7.0494-2.97398-2.7171 0-4.9933.99135-6.8292 2.97398-1.7623 1.90922-2.9372 4.51604-3.5246 7.82045Zm51.4251 34.69635v-59.58961h20.9475v12.00604c.6654-1.57401 1.437-3.00531 2.2498-4.29388 2.6428-4.18959 5.5574-6.72891 10.2869-8.04229 1.9299-.53592 4.0261-.75632 6.2904-.66118v22.07384h-1.7216c-6.4464 0-11.0671 2.25838-13.8625 6.64499-2.1403 3.35858-3.2993 7.96474-3.2993 13.76007v18.10202Zm67.0604 17.95399c-6.6087 0-12.9974-1.72565-19.1657-5.17692l6.4988-14.64958c3.5246 2.12952 6.572 3.19428 9.1421 3.19428 2.056 0 3.6716-.80775 4.8466-2.42324l-23.3513-58.48814h21.9192l11.896 35.90797 11.2351-35.90797h21.4786l-21.8091 58.15769c-2.6436 7.04941-5.5424 12.0803-8.9219 14.98001-3.3554 2.87897-7.8939 4.4059-13.7684 4.4059Z" fill="#330f42"/></svg>