<?xml version="1.0" encoding="UTF-8" standalone="no"?><svg version="1.1" width="1000" height="493.92981" viewBox="0 0 1000 493.92981" xmlns="http://www.w3.org/2000/svg" xmlns:svg="http://www.w3.org/2000/svg"><path d="M536.89812 128.26776c-.10462 2.74614-.53735 9.32413-.84027 12.78116-.25748 2.93837-.62611 5.75163-1.06251 7.79059-.69872 3.26451-1.64776 6.306-2.91437 9.05212-1.75662 3.80848-4.11327 7.27893-7.2366 10.48884-5.67379 5.83106-13.28622 9.17622-23.14105 9.17622-5.02023 0-9.77962-.97236-14.03648-2.69994-3.46408-1.40585-6.31596-3.16903-8.72017-5.1864-1.95325-1.63897-3.51296-3.36945-4.84925-5.19612-2.28595-3.12481-4.25505-7.41328-5.70506-11.71327-1.94376-5.76422-3.17159-11.51015-3.13183-19.0453.16855-4.88968 1.04556-10.24864 2.68112-15.45546 1.26563-4.02911 3.4976-9.11737 5.93443-12.61034 2.20768-3.16449 4.77274-5.777738 8.54813-8.299618 3.21185-2.14545 7.18064-3.85302 11.32921-5.08838 5.1908-1.54572 11.70565-2.35218 16.32881-2.35218 2.78669 0 5.31817.07367 8.2324.45195 5.01451.65088 10.50116 2.00531 15.6004 4.00688 2.01446.79073 3.02932 2.59819 3.09406 4.42429.02789.78668.05292 1.706998.06927 2.753588.05467 3.49898.0805 8.13665.0603 12.8359-.01299 3.02216.13031 3.72202.09114 6.0748-.02549 1.53091-.17731 3.74529-.33168 7.81067Zm22.99316-50.908998c-3.90945-1.67575-8.00598-3.05417-12.00123-4.39628-7.35559-2.47091-15.15718-4.30898-22.85559-5.34592-7.63946-1.02899-14.87598-1.52009-25.1339-.49186-5.03455.50466-10.18633 1.40742-15.15742 2.74405-5.49316 1.477-10.7657 3.44328-15.41564 5.89658-3.77168 1.98993-7.30519 4.29777-10.4302 6.91996-3.33339 2.79705-6.66238 6.35273-9.56833 10.5305-2.90592 4.17775-5.38881 8.977578-7.44789 14.262918-1.48033 3.79981-2.64809 7.85056-3.50439 12.10151-1.75487 8.71171-2.19047 16.90786-.45687 28.48531.74954 5.00565 1.92565 9.9933 3.53815 14.7951 1.6305 4.85541 3.19933 9.0781 6.18626 14.08427 5.2133 8.73763 12.62389 15.68764 21.1504 20.08997 7.55203 3.89919 15.96842 6.00772 26.88394 6.00772 7.20434 0 14.28767-1.44785 20.77106-4.22481 4.87489-2.08801 9.38715-5.24439 13.29794-9.13328 3.91117-3.88926 5.97425-7.15883 9.03536-11.6663.61443-.90476 1.33151-1.84898 2.04939-2.86851 0 0 .13709 3.67408.12993 4.98729-.03906 7.40427 1.97496 12.56563 5.82373 16.07219 3.59513 3.27548 8.06614 4.87205 13.01435 5.59704 3.14294.46049 6.16287.48809 9.32389.21688 2.43722-.20911 3.83157-.38894 4.84752-.59722.6966-.14282 1.3149-.33465 1.83314-.56109.74194-.32417 1.27877-.71925 1.54663-1.14293.37704-.59636.5538-1.40296.5538-3.57766l.0137-14.39209s-1.74586.01038-2.5443-.01403c-2.07104-.06336-3.76999-.46532-5.16334-.98756-2.08447-.78129-3.48502-2.07486-4.42429-3.67473-2.00131-3.40885-1.9084-8.71857-1.87492-15.06534l.22754-36.39705.3386-40.059458c.02143-2.93381-.43464-4.59565-.63574-5.03339-.53403-1.16242-1.78515-2.2333-3.95128-3.16178Z" fill="#55bfcf"/><path d="m223.95816 26.928877-18.77086-.232571c-1.66984-.020689-2.66834.141226-3.30872.662172-.6583.535526-.9365 1.452123-1.05278 3.063521l-2.44537 33.889773c-.0739 1.02418-.41596 1.92101-1.10849 2.52092-.56337.48802-1.45771.77623-3.47282.78335l-16.90113.06755c-1.33767.00472-2.85885.19607-3.95727.80964-.78519.4386-1.38808 1.09296-1.39887 2.04912l-.07 15.50059 23.33606 1.88985c.90487.07482 1.64283.4627 2.21165 1.09032.55824.61596.93204 1.63407.92621 2.5251l-.17851 27.288708.1543 24.85107c.01745 2.81174.11693 5.92019.2205 8.66702.27197 7.21273.76273 13.43179 1.29644 16.45862.68303 3.8737 1.7419 7.36575 3.2744 10.65883 2.12188 4.55956 4.77373 8.584 9.64524 12.96609 7.28533 6.55342 17.75264 10.59255 29.05259 10.47913 3.6705-.03684 7.30555-.33797 11.72145-.865 3.17758-.37922 6.77181-1.07316 10.22095-1.70314 4.14629-.75731 8.2107-1.48608 12.78882-2.31423l-2.67231-20.58242s-3.0988.23566-7.38335.80087c0 0-6.56224 1.17827-9.90505 1.70188-3.06976.48084-5.349.80382-7.1133.84395-3.52659.08022-6.78938-.53075-9.6534-1.76485-5.62035-2.42181-7.73269-5.98407-8.82462-7.88207-.52036-.90449-.9783-2.06848-1.38067-2.98444-.57867-1.31732-1.04239-2.54615-1.41148-3.73737-.6774-2.18624-1.07777-3.57734-1.35984-6.43256-.25534-2.58465-.21722-3.14623-.22275-6.39876l-.21989-11.08476-.08373-49.216088c-.00156-.91813.45188-1.73937 1.13781-2.29137.87482-.72265 2.30692-.71702 2.96087-.71016l39.16579.41118c1.31627.01381 2.20079-1.00538 2.20802-2.32171l.08568-15.60737c.00378-.6891-.15115-1.30142-.54357-1.75362-.42793-.49313-.81386-.79459-2.23323-.80013l-39.3945-.15372c-1.83792-.00717-3.32087-1.50429-3.30394-3.34215l.3258-35.387058c.01214-1.317965-1.04421-2.397378-2.36213-2.413707Z" fill="#55bfcf"/><path d="M323.67422 124.35413c.01315-2.49241.12602-4.84157.4515-7.06637.89884-6.14403 3.04657-11.33956 6.76294-15.98406 2.51342-3.141138 5.67393-5.799598 9.47348-7.964518 3.07611-1.75272 6.25808-3.0299 9.86681-3.78178 2.50049-.52096 5.20587-.85854 8.22289-.85854 3.77386 0 7.17346.48308 10.19556 1.25223 5.51474 1.40354 9.77245 3.98879 12.75349 7.39481 2.55189 2.915678 4.36402 6.139298 5.60755 10.918918 1.00098 3.84737 1.63352 7.66037 1.98689 14.17509.20132 3.71152.27095 10.48644.33082 16.47341.02688 2.68752.05179 2.09637.08576 7.16188.03608 5.37793.34043 11.7843.29988 19.47028-.01939 3.67644.14485 6.39824.28607 10.06678.16391 4.25735 1.03947 7.92009 2.37637 11.12332 1.25839 3.01512 3.11896 5.61378 5.74321 7.88233 4.02929 3.48316 9.47913 5.61554 16.76362 6.42247 2.88762.31988 6.9002.35152 8.39333.29222 1.35371-.05377 5.60978-.34249 8.21399-.71707.87813-.05919 1.50955-.59506 1.80697-1.19276.28836-.57954.2561-1.21321.24785-1.77742l-.11979-12.4268c0-1.45045-.49394-4.68781-.49394-4.68781-4.11768.69436-7.84764.88858-10.49389-1.19488-1.70016-1.33858-2.59312-2.71853-3.30516-4.21043-1.5985-3.34923-1.24381-9.59228-1.25856-12.53906l-.15968-31.89618c-.01428-2.85386-.08373-5.94628-.18454-9.04705-.13211-4.06389-.23515-8.14215-.6709-11.7166-1.28688-9.18683-4.07979-16.961398-9.76714-24.636908-3.02789-4.08638-6.72729-7.68252-11.10833-10.73036-2.98399-2.05058-6.06095-3.59573-9.3933-4.89126-5.37458-2.05365-11.2187-3.10726-17.43121-3.10726-6.56577-.40599-14.5514.4469-21.10775 2.69388-4.08665 1.40057-7.94551 3.32252-11.49905 5.76071-3.46884 2.38009-6.51768 5.29085-9.3576 8.51991-1.04643 1.04356-2.00327 2.0694-3.05315 3.14715l.00394-2.48655.05851-44.75149c.06623-11.730902.2336-23.578825.35086-35.323412C324.5791 1.459675 323.98672 0 321.76318 0l-22.7363.033832c-3.05008 0-3.22829 1.17129-3.22829 2.826378l-.33879 61.172242-.16456 57.403068-.44382 57.90512-.09433 17.29183c0 1.81624.44587 3.36788 3.47613 3.36788h21.45652c2.61342 0 3.54778-1.20469 3.54778-3.3981l.31379-58.32715Z" fill="#55bfcf"/><path d="m631.69822 29.241985-17.58778-.220395c-.87572-.010855-1.95439.298413-2.55653.849788-.60242.551624-.95884 1.55643-1.02469 2.430134l-2.54382 34.59264c-.12716 1.68709-1.71271 3.23648-3.56285 3.23648l-19.75838-.08978c-1.25993 0-2.19535.18181-2.80588.57668-.909.64195-.85956 1.59396-.86503 2.58951l-.03365 6.12064-.1957 6.911c-.03616 1.27705.94009 2.35594 2.21439 2.44722l21.47926 1.53849c1.68535.12072 3.0277 1.52769 3.0169 3.21732l-.20063 31.398878.17457 17.22287c.042 4.14393.00079 14.17758.4475 20.13235.30759 4.10009.84261 8.24355 1.78348 11.89907 1.51713 5.89441 4.52336 11.94333 8.55807 16.86596 6.8817 8.39616 16.64831 12.90345 28.40377 14.13708 11.9298 1.25193 23.17468-.43562 36.27035-4.26652 1.41848-.41495 2.44668-1.962 2.27377-3.42978l-2.12893-18.07127s-2.68049.31562-6.36445.94917c-3.01262.5181-6.21635 1.05629-11.95648 1.85354-3.32957.46243-6.75492.89705-8.80924.91741-1.73617.01721-3.60515-.00989-6.59229-1.3211-2.7968-1.22767-5.34887-3.17864-7.65179-6.03488-1.86328-2.31096-3.23106-4.80486-4.20774-7.70108-1.18162-3.50398-1.46271-4.84602-1.73046-9.56404-.04449-.78402-.25376-5.10293-.36568-11.78432-.02957-1.7656-.09655-4.62876-.1033-6.39486l-.03162-8.28459.1722-36.647268c0-1.72044.27391-2.79265.84843-3.62489.96206-1.13892 2.18023-1.05701 3.48341-1.05701l18.53886.1909 18.74069.43584c3.39098.07886 4.05623-1.05207 4.03331-2.86739l-.09445-7.48285.08022-6.64913c.03391-2.80972-.85259-3.77749-3.72974-3.75162l-16.07183.14445c-1.74453.0157-3.48945.02071-5.23373-.0117l-12.01475-.16513-5.80746-.14112c-.70985-.01725-1.59623-.44684-1.93336-.83673-.48535-.56132-.66963-1.41102-.64996-2.86386l.21697-16.03226.18251-17.43242c.00743-.71026-.01151-1.291027-.07294-1.766167-.17835-1.379718-.92142-1.794271-2.00325-1.947683-.57941-.082166-1.3109-.206179-2.23027-.217577Z" fill="#55bfcf"/><path d="M762.6919 68.890112c-12.65087 0-24.68338 2.18095-34.95188 7.81495-6.90057 3.78613-12.63071 8.93133-16.21291 15.23344-1.68103 2.95743-2.9826 6.55022-3.6851 10.630448-.25423 1.47657-.92623 5.73581-.16553 11.4038.35868 2.67259 1.03591 6.05686 2.22568 8.87657 1.5855 3.7576 3.86811 6.88875 6.80934 9.35674 2.9445 2.47072 6.76394 4.33398 10.74548 5.66494 4.83057 1.61478 10.95903 2.71752 20.33231 4.71198 4.52996.85769 12.08375 2.37499 18.89878 3.9565 8.55924 1.98625 16.77539 4.07269 19.25918 5.07238 4.83191 1.94476 8.37511 5.78813 8.33656 13.09536-.30387 5.54218-2.33048 9.79341-5.56925 12.92023-1.50383 1.45186-3.37941 2.67913-5.44298 3.67753-2.32217 1.12351-5.12241 2.00257-6.42856 2.38857-1.76488.52154-3.83695 1.03623-5.91948 1.33172-2.16867.30772-4.79259.46428-8.61553.46428-4.13121 0-9.28827-.98947-13.70013-2.40486-4.13109-1.09925-8.08364-3.28391-10.91857-6.02333-1.85741-1.79484-3.24466-4.1487-4.23343-6.38987-.43102-.97694-.77563-1.91098-1.0496-2.76595-.17991-.56143-.30474-.98998-.51259-1.34409-.27215-.46369-.56666-.72827-.89189-.9325-.57285-.35975-1.80322-.47473-2.06626-.48209-3.05831-.08558-6.10127-.13318-9.1402-.14659-2.88542-.01272-5.54171-.07892-8.35453-.06128-2.24881.01411-4.24277.19099-7.24367.27322 0 0-.02282 1.13502.03449 1.69035.83088 8.05135 3.38298 14.40655 6.97579 19.52571 2.096 2.98646 4.44498 5.55821 7.03333 7.64015 4.86951 3.91678 10.58466 6.46684 17.05185 8.53 5.59414 1.78464 11.71494 3.04249 17.90563 3.70695 7.03685.75528 16.31628.85048 26.7773-1.15022 3.84444-.73527 7.49614-1.66517 10.65391-2.69971 3.27786-1.07388 6.29146-2.30744 8.88762-3.65823 5.3393-2.77802 9.96667-6.49853 13.3602-10.83148 4.73092-6.04058 7.21894-13.47824 7.26941-23.0447.03652-6.9207-1.87284-14.53822-5.23644-19.57793-1.99972-2.99621-3.95301-5.10877-7.42683-7.65748-4.52551-3.32032-11.15403-5.84598-17.94498-7.56758-7.34686-1.86252-15.51492-3.03396-23.71347-4.66292-5.49101-1.0452-10.20228-2.08546-14.64311-3.15342-3.46729-.90793-7.07484-1.37875-10.38222-2.81164-1.46445-.71248-2.47841-1.56584-3.39929-2.74531-1.25796-1.61122-2.27756-4.47982-2.1599-8.09621.06492-1.99518.49198-4.50394 1.44978-6.48048 1.35551-2.797288 3.44178-5.081098 6.07518-6.729758 3.75655-2.35182 8.8466-4.00375 13.94344-4.74176 7.37933-1.06851 13.07971-.11299 16.92716.68535 3.83548.79584 8.24122 2.11539 11.15322 3.8459 3.93573 2.33888 6.44085 5.497908 7.66364 10.002278.20294.74755.44974 1.41448 1.06817 1.89648.62675.48848 1.0144.78703 3.36652.78703h15.64672c3.2703 0 4.25101-.06532 4.99463-.97308.47655-.58174.67586-1.463.43656-2.75938-.65258-3.53533-1.75061-6.745468-2.92856-9.664138-3.08482-7.64355-8.45749-13.28804-16.30997-17.53857-3.82733-2.07173-8.58504-3.89871-13.09386-5.17513-7.33219-2.07569-14.82564-2.91317-22.94116-2.91317Z" fill="#55bfcf"/><path d="M705.66872 9.532062c-4.69852.000001-10.38835 1.758589-13.54944 5.612004-.57171.696927-1.2062 1.635942-1.68605 2.524995-1.31921 2.444219-2.10959 5.281912-2.10959 7.851917 0 3.934523.97378 7.518214 3.61441 10.493994 1.30374 1.46921 2.9536 2.75057 4.83016 3.774 1.02147.55709 1.92552.96419 2.80013 1.65185.96218.86361 1.10682 1.25358.8168 3.03451l-5.34926 18.50716 12.66613-.05101c1.95212 0 2.77584-.32796 3.42721-.77261.74641-.50952 1.30291-1.25039 1.57521-2.08096l5.34077-16.03667 2.49438-7.86241s.78808-2.48398 1.47275-5.211011c.23426-.933055.48017-1.852817.60436-2.382739.47949-2.046175.37586-3.852575.32332-4.547665-.10641-1.407731-.41672-2.902666-1.0482-4.407414-.79025-1.883101-1.97074-3.593726-3.44946-5.049988-3.5602-3.506109-7.71973-5.047954-12.77363-5.047953Z" fill="#55bfcf"/><path d="M833.05672 252.78027v239.38817l166.94326-.27328v-62.12087l-112.60318.00051-.02036-28.32648 99.25247-.02289.01808-60.6136-100.08394.00904-.02036-26.88404 113.24307.03258v-61.18914Zm12.0935 12.19729h142.54204v36.72932l-113.2631.022.03666 51.237 100.09582-.007.0224 36.30326-99.23993-.00563.00891 52.6849 112.82934-.00254v37.71781l-143.03214.32181Z" fill="#55bfcf"/><path d="m389.52315 250.93169-.07535 64.07378 193.56525 178.92435.35636-45.1526.2362-34.45599Zm136.62255 2.75714-.01426 94.75041 57.41104 48.70592.02241-143.45633Zm12.04055 12.16477h33.33604l.01629 105.11103-33.39508-28.29622Zm-136.66123 11.10183 169.95654 143.13459-.40114 46.21352-169.5554-156.72274Zm-11.14256 57.22981-.0224 157.04853h57.46806l.01425-103.99107Zm12.00797 27.67719 33.4073 30.80902-.04275 86.3833h-33.34826Z" fill="#55bfcf"/><path d="M66.38496 253.78047.2464 253.7825l-.20771 94.31057.00408 91.76725L0 492.78747l63.94549.02239c6.49052-.00669 17.022269-1.41969 27.815662-5.0846 7.23284-2.45593 14.434538-5.58903 21.580558-9.80064 19.65727-11.58529 30.26308-25.04776 35.69609-32.95321 8.57966-12.48409 13.59906-25.66821 16.41246-37.65908 2.9605-12.61782 3.62916-24.26329 3.58794-33.18127-.03366-7.28175-.51988-15.44266-1.97927-23.91821-1.68698-9.79721-4.74287-21.52684-10.46651-33.32382-7.92379-16.33166-20.89057-33.29946-41.97192-46.78977-8.89264-5.69055-18.971899-10.17956-27.485789-12.8673-10.638287-3.35837-18.145991-3.45158-20.749751-3.45149ZM12.2951 266.0389l54.96953.00407c2.29698 0 8.09081.0387 17.475409 3.0524 7.510569 2.41188 16.401371 6.48607 24.246051 11.59257 18.59703 12.10577 29.94618 27.33067 36.93619 41.98617 5.04914 10.58621 7.79118 21.11321 9.27935 29.9049 3.39033 20.02911 1.13819 38.09379-.00814 44.97748-.71232 3.99799-1.71048 8.48132-3.10534 13.1768-5.06676 17.05619-13.67556 29.89533-22.94894 39.4449-8.20666 8.45106-17.85091 15.14563-27.86046 20.03705-3.015292 1.4735-6.179767 2.86719-9.542033 4.22936-7.900309 3.20069-20.122997 6.08992-26.532807 6.09665l-53.28959.05497Zm36.24996 35.42934v142.42597h13.36007c6.32972 0 8.60728-.5754 12.64533-1.61885 3.518934-.90931 6.963043-2.17463 10.488912-3.72436 5.463735-2.40152 10.473909-5.49582 14.673476-8.81508 3.351322-2.64883 7.954932-6.69785 12.576102-13.25215 2.75181-3.90296 5.01885-8.17595 6.70549-12.50687 1.119-2.87335 2.05351-5.65912 2.81007-8.60942 1.07915-4.20829 1.79643-8.5394 2.17679-13.11775.68528-8.24853.47848-19.70458-2.49649-30.69293-1.26041-4.65547-2.91925-9.08152-4.93188-13.2379-2.81136-5.80589-6.76301-11.41543-11.55999-16.43283-2.32726-2.43418-4.95838-4.72892-7.650328-6.83988-4.055893-3.18053-9.192488-6.17411-13.885433-8.36506-2.726421-1.27286-5.431782-2.32065-8.173649-3.13792-1.94302-.57915-3.47847-1.0425-5.15384-1.3867-2.39149-.49134-3.12578-.68827-7.67476-.68827Zm12.08739 12.1668h4.91356c10.206566 1.38658 20.056608 7.68571 23.912103 10.71698 7.233246 5.68691 12.530527 11.95323 16.890987 21.03483 2.69763 5.61838 4.55318 12.78555 5.38598 19.92302.46306 3.52916.49685 7.08725.49685 10.63959-.18844 13.79273-3.89418 26.74882-11.92245 36.67555-4.320179 5.34178-10.173805 10.05049-17.11091 13.46188-3.917701 1.92657-8.31608 3.53001-12.81638 4.53074-3.21172.71417-4.33306 1.12199-9.7701 1.12199Z" fill="#55bfcf"/><path d="M265.85747 251.903 142.98799 490.83263l62.66262-.02239 59.99305-118.36319 29.97209 61.89087-47.5493.00408-29.60923 56.95556 166.84063.03803Zm-.1629 26.82808 99.89 200.30128-127.09636.0061 16.91277-32.49301 59.63484.02851-49.14169-101.39481-67.61894 133.43169-35.33567-.00203Z" fill="#55bfcf"/><path d="M712.59616 253.72345c-6.63014 0-12.91556.47654-19.10442 1.50277-7.04484 1.16816-14.62672 3.18124-22.29122 6.14348-11.36628 4.39293-23.65462 11.21014-35.04041 21.05723-7.54593 6.52616-14.84993 14.43622-21.20588 23.83065-4.47 6.6069-8.29695 13.61232-11.37266 20.99411-3.81452 9.15496-6.47169 18.88325-7.75824 29.09445-1.14197 9.06369-1.53791 19.14738.36449 31.76198.90637 6.00999 2.35189 12.31533 4.48186 18.96189 3.39792 10.60289 8.21075 20.51461 14.18273 29.67276 6.23509 9.56164 13.69347 18.29226 22.1161 25.72644 8.17036 7.21152 17.10563 13.29002 26.74254 17.97633 6.06078 2.94728 12.23064 5.34453 18.70939 7.127 8.77706 2.4148 17.4408 3.70197 28.52633 3.70197 10.27845 0 20.38985-1.34165 30.0454-3.90967 17.62817-4.68843 35.95067-14.04973 53.16946-31.38731 4.39096-4.42126 12.10547-12.84988 20.52168-25.66747 3.39754-5.17431 5.86199-9.44613 8.5911-14.40843l-9.31731-6.64122-15.0392-9.95662-17.90524-11.29947-8.79727-5.33715c-.63067 2.04713-1.45475 4.08231-2.33036 6.22493-2.30999 5.65255-5.27297 10.97448-8.76418 15.83619-2.26131 3.14899-4.48826 5.83418-6.82766 8.27343-5.30368 5.53007-10.1391 8.89678-13.63294 10.95522-3.23731 1.9073-6.70689 3.52075-10.26899 4.69771-5.59404 1.84834-10.89039 2.9241-19.22457 2.92411-7.11333 0-15.62904-1.6651-22.20569-4.35766-25.79351-10.56025-36.5209-37.23079-36.60427-55.72907-.05364-11.90039 5.64448-26.65027 15.66921-38.25977 4.79126-5.54869 10.67176-10.70469 17.76863-14.57573 7.62198-4.15747 15.91685-6.19235 25.64295-6.19234 2.76401 0 6.80604.31199 11.2912 1.24212 5.54002 1.14888 12.03588 3.31494 18.55464 7.31841 3.8025 2.33531 7.8235 5.34991 11.39506 9.00854 3.47342 3.55805 5.30749 5.75116 9.80878 13.44763l51.52202-31.63778c-3.85505-5.94538-8.29762-11.69984-13.32143-17.11843-13.68039-14.75549-31.1297-27.0204-49.2739-33.86812-12.15181-4.58616-25.21485-7.13311-38.81773-7.13311Zm-.06108 12.21364c10.89481 0 21.27953 1.92601 30.99023 5.25565 22.17258 7.60261 40.58843 22.47272 52.83144 37.21924l-30.27754 18.55259c-1.62543-1.98563-3.27436-3.86685-4.93189-5.56721-4.30263-4.41386-9.14574-8.05028-13.72659-10.86765-7.85309-4.82988-15.67829-7.44329-22.35232-8.82933-5.40324-1.12214-9.85314-1.43151-13.18291-1.43151-7.42151 0-18.36884.42432-32.1224 7.90486-9.76992 5.31384-19.60276 13.54778-27.8625 26.24772-7.09205 10.90452-11.66904 24.06421-11.6109 36.9932.01379 3.06654.24654 6.38794.80433 10.06333 2.43175 16.02315 10.47368 32.6148 23.1485 44.36252 5.57013 5.1627 12.37547 9.62068 20.14497 12.8062 7.92283 3.24838 17.92473 5.1742 26.49411 5.1742 10.04011 0 16.67819-1.28474 23.41729-3.51463 7.69429-2.54594 14.99431-6.82393 21.03891-11.72697 5.19023-4.21002 9.39562-8.68974 12.94383-13.26713 3.842-4.95643 6.91349-9.96744 9.63043-14.93453l14.26992 9.07043 15.00373 9.91701c-1.09444 1.83186-2.22321 3.6434-3.15014 5.05613-7.54526 11.49961-14.46127 19.00673-18.39784 22.97338-15.43689 15.55484-31.27098 23.80168-47.64502 28.15979-7.32822 1.95047-17.72122 3.50648-26.93599 3.50648-9.93834 0-17.70497-1.15468-25.57371-3.32118-5.80832-1.59919-11.34135-3.72933-16.77492-6.37357-8.63962-4.20444-16.64835-9.65738-23.97319-16.12738-7.55102-6.66976-14.23746-14.4784-19.82732-23.05687-5.35396-8.21647-9.67033-17.19121-12.7166-26.70385-1.90959-5.96313-3.20503-11.58247-4.01759-16.97448-1.70555-11.31751-1.39438-20.36407-.37061-28.49578 1.15343-9.16124 3.49953-17.88954 6.9193-26.10315 2.75742-6.62276 6.18827-12.90809 10.19569-18.83565 5.69819-8.42844 12.29051-15.52385 19.05556-21.37896 10.2075-8.83456 21.15655-14.90866 31.34658-18.84989 6.87133-2.65765 13.77218-4.46418 20.08796-5.51222 5.54847-.92071 11.18319-1.39079 17.1272-1.39079Z" fill="#55bfcf"/></svg>