<?xml version="1.0" encoding="UTF-8" standalone="no"?><svg version="1.1" width="1159.05" height="129.50722" viewBox="0 0 1159.05 129.50721" xml:space="preserve" xmlns="http://www.w3.org/2000/svg" xmlns:svg="http://www.w3.org/2000/svg"><path d="M6.8887951 0H52.814022c3.804655 0 6.888828 3.0841782 6.888828 6.8887042V96.441889c0 7.608981 6.168457 13.776961 13.777546 13.776961 7.6092 0 13.777657-6.16798 13.777657-13.776961V6.8887042C87.258053 3.0841782 90.342226 0 94.146771 0h45.925449c3.80465 0 6.8885 3.0841782 6.8885 6.8887042V59.702065c0 47.556635-21.3301 68.887035-68.887735 68.887035h-9.185067C21.330723 128.5891 0 107.2587 0 59.702065V6.8887042C0 3.0841782 3.0842173 0 6.8887951 0Z" fill="#a9dbd2"/><path d="M657.46341 112.96442c-16.18191 0-25.90737-9.18259-26.63479-27.634836h76.54057c.45409-3.090878.72743-6.4551.72743-9.998539 0-28.726002-18.18012-45.634076-50.81617-45.634076-34.26835 0-53.177 17.63519-53.177 49.359487v1.182211c0 32.179063 18.81717 49.268553 52.81439 49.268553 29.27115 0 47.08756-11.27212 51.17878-32.179168l-25.81699-2.635673c-2.4534 12.180441-11.08993 18.272041-24.81622 18.272041Zm.36371-66.81326c13.99853 0 23.36248 7.634777 23.36248 19.361334v.091261c0 3.089666-1.36337 4.454511-5.09088 4.454511h-44.90639c2.00042-15.453951 11.45475-23.907106 26.63479-23.907106Z" fill="#a9dbd2"/><path d="M606.17662 31.878208h-49.08799v14.998856c13.7274 0 15.09077 1.273473 6.90944 19.90769l-8.27281 18.726802c-2.0908 4.635712-4.81754 11.544695-7.99947 20.452944h-1.90895c-3.00007-8.816987-5.81719-16.180405-7.81761-20.816778l-12.4533-27.725652c-4.09012-9.271533-2.9086-10.545006 10.63473-10.545006V31.878208H486.1845v14.998856c7.45501 0 8.45356.728329 11.90883 8.63689l31.90642 71.812026h32.45199l31.81604-71.812026c3.45527-7.908561 4.45493-8.63689 11.90884-8.63689Z" fill="#a9dbd2"/><path d="M481.22258 105.5093V61.967732c0-21.362584-15.36301-32.270763-44.90639-32.270763-30.27082 0-51.36064 11.635295-51.36064 27.906963 0 7.8173 5.18125 12.181101 16.54452 12.181101 8.99913 0 14.36334-2.727045 14.36334-7.817301 0-3.727394-2.81822-4.090567-2.81822-7.454789 0-5.726 8.54504-9.998539 21.08872-9.998539 14.09001 0 20.63573 5.271566 20.63573 16.543579v7.091506l-26.27217 4.36325c-26.36146 4.453078-44.54158 12.089729-44.54158 32.087471v.36449c0 15.45384 11.08993 24.54252 30.99824 24.54252 21.72577 0 37.54176-9.63536 43.6334-26.45118l1.90894.45388c-3.72751 18.36242.18185 25.9973 17.81641 25.9973 3.99973 0 8.00057-.54448 11.08993-1.36341l2.90859-15.54422c-9.36284.81783-11.08882-.18186-11.08882-7.09029Zm-26.45294-18.725593c0 15.452743-13.2722 26.271093-29.18077 26.271093-9.27137 0-14.72596-3.81822-14.72596-10.45452v-.36383c0-9.543448 9.09061-14.180482 26.54441-17.180099l17.36232-2.999617Z" fill="#a9dbd2"/><path d="M316.89058.0632405h-65.81326V15.061395c11.36217 0 12.27145.637729 12.27145 8.635679v79.993496c0 8.00081-.90928 8.63568-12.27145 8.63568v14.99973h65.81326c39.81662 0 59.72272-21.18028 59.72272-63.358981v-.362511c0-42.361336-19.9061-63.5412475-59.72272-63.5412475ZM348.797 67.057988c0 28.543369-10.54436 41.451582-33.45275 41.451582h-25.17884V18.78879h25.17884c22.90839 0 33.45275 13.00003 33.45275 41.633448Z" fill="#a9dbd2"/><path opacity=".7" d="M227.7435 109.07842c3.17863-3.73489 10.39667-15.782629 12.56132-24.237328.77592-3.028935-1.28843-6.019955-4.41525-6.019955h-12.71562c-2.93395 0-5.53725 1.897645-6.41457 4.697545-.37473 1.196099-3.04086 8.094171-4.91012 10.608162l-11.71485-11.126413c4.59159-2.785571 15.54155-9.593924 15.54155-22.545899 0-6.201816-2.6551-20.480169-26.25565-20.48546-23.59062-.00518-27.2553 13.245819-27.2553 20.48546 0 11.569384 6.10155 17.346526 7.71181 19.190494-3.45417 1.766705-16.49713 8.99323-16.01218 23.605874.90929 27.38827 37.69717 31.24044 57.10179 17.89509l2.76642 2.84917c2.05773 2.11731 4.88587 3.31319 7.83966 3.31319h15.13486c3.63492 0 5.41601-4.42861 2.79397-6.94492Zm-38.67588-54.03918c4.98286.003858 6.02441 3.498028 5.88664 5.415292-.39678 5.547445-4.65002 8.634687-6.8874 9.889643-1.37439-1.254956-5.36311-5.089484-5.18015-9.12406.09919-2.195347.9721-6.184843 6.18091-6.180875Zm-10.61931 50.28599c-3.40677-7.613946 2.88105-12.35139 3.96668-13.023397l14.5992 14.834517c-2.16133 2.16129-15.11171 5.90522-18.56588-1.81112Z" fill="#a9dbd2"/><path d="M1082.3345 128.95397c19.701 0 32.8652-8.71448 41.036-26.86966l1.8156.81699c-3.45 10.43922-4.8118 17.51974-4.9025 24.32793h38.7664v-14.97802c-11.4393 0-12.2565-.63543-12.2565-8.62371V31.914562h-24.1493c-1.0894 7.988277-3.1775 9.349915-16.6142 9.349915v14.887244c13.3458 0 14.3443.726207 14.3443 8.623708v12.890175c0 20.515348-9.9866 33.314746-26.5099 33.314746-12.2562 0-18.4299-6.53586-18.4299-18.881382V31.914562h-24.0586c-.9987 7.988277-2.8145 9.349915-14.5259 9.349915v14.887244c11.3483 0 12.1654.726207 12.1654 8.623708V98.45328c0 19.97069 11.7117 30.50069 33.3191 30.50069Z" opacity=".7" fill="#a9dbd2"/><path d="M995.44698 127.22923 1034.753 23.744733c2.9048-7.625174 4.2664-8.623709 11.9824-8.623709V.14300466h-49.38212V15.121024c14.07032 0 14.79652.998535 3.54032 31.49923l-11.25622 30.500695c-2.8141 7.625173-5.6281 16.248882-8.4422 25.326471h-1.9063c-2.63246-9.077589-5.44651-17.610522-7.98823-24.327937L956.0503 37.814994c-7.8975-21.423107-6.98974-22.69397 6.80819-22.69397V.14300466H912.024V15.121024c7.62517 0 9.07759.998535 11.98241 8.623709l39.75984 103.484497Z" opacity=".7" fill="#a9dbd2"/><path d="M855.04033 129.40785c21.69948 0 37.49742-9.62224 43.58053-26.41578l1.90666.45388c-3.7225 18.33673.18158 25.9619 17.79538 25.9619 3.99489 0 7.98977-.54465 11.07673-1.36163l2.90536-15.52268c-9.35165.81698-11.07672-.18155-11.07672-7.08052V61.961377c0-21.332331-15.34398-32.225436-44.85164-32.225436-30.23399 0-51.29792 11.619312-51.29792 27.868194 0 7.806725 5.17519 12.163967 16.52428 12.163967 8.9885 0 14.34526-2.723276 14.34526-7.806725 0-3.721811-2.81457-4.084914-2.81457-7.443622 0-5.71888 8.53452-9.985346 21.06392-9.985346 14.07289 0 20.60997 5.265001 20.60997 16.521209v7.080519l-26.23911 4.357242c-26.32992 4.448018-44.48847 12.073191-44.48847 32.043881v.36311c0 15.4319 11.07672 24.50948 30.96034 24.50948Zm10.62275-16.43043c-9.26086 0-14.70843-3.81259-14.70843-10.43923v-.3631c0-9.531466 9.07929-14.161036 26.51149-17.15664l17.34143-2.995604v4.720346c0 15.431898-13.25575 26.234228-29.14449 26.234228Z" opacity=".7" fill="#a9dbd2"/><path d="M764.35962 129.49863c31.41427 0 48.12013-13.88871 48.12013-40.032162V23.744733c0-7.988277.81714-8.623709 12.16622-8.623709V.14300466h-57.38098V15.121024c16.97823 0 18.34013.635432 18.34013 8.623709v63.452338c0 15.885779-7.26342 23.601729-21.3363 23.601729-14.52683 0-21.88103-7.35285-21.88103-15.341124 0-7.26207 6.35549-9.440691 6.35549-16.975089 0-8.079053-5.71994-11.89164-14.25445-11.89164-12.71099 0-19.33886 8.260605-19.33886 22.966297 0 24.146386 17.6138 39.941386 49.20965 39.941386Z" opacity=".7" fill="#a9dbd2"/></svg>